<svg xmlns="http://www.w3.org/2000/svg" viewBox="0 0 1280 720">
  <defs>
    <linearGradient id="bg" x1="0%" y1="0%" x2="100%" y2="100%">
      <stop offset="0%" stop-color="#050714"/>
      <stop offset="100%" stop-color="#120a2d"/>
    </linearGradient>
    <linearGradient id="track" x1="50%" y1="0%" x2="50%" y2="100%">
      <stop offset="0%" stop-color="#25348f"/>
      <stop offset="100%" stop-color="#14296f"/>
    </linearGradient>
  </defs>

  <rect width="1280" height="720" fill="url(#bg)"/>

  <g fill="#edf5ff" opacity="0.9">
    <rect x="188" y="134" width="8" height="8"/>
    <rect x="242" y="188" width="7" height="7"/>
    <rect x="278" y="164" width="6" height="6"/>
    <rect x="332" y="204" width="7" height="7"/>
    <rect x="404" y="116" width="5" height="5"/>
    <rect x="910" y="98" width="6" height="6"/>
    <rect x="996" y="208" width="5" height="5"/>
    <rect x="1082" y="160" width="7" height="7"/>
    <rect x="1148" y="124" width="8" height="8"/>
    <rect x="1190" y="332" width="9" height="9"/>
  </g>

  <polygon points="640,168 1240,720 40,720" fill="url(#track)"/>
  <path d="M640 168L1240 720" stroke="#2540ff" stroke-width="14"/>
  <path d="M640 168L40 720" stroke="#2540ff" stroke-width="14"/>

  <g opacity="0.45" stroke="#2558ff" stroke-width="4" fill="none">
    <path d="M640 168L640 720"/>
    <path d="M640 168L538 720"/>
    <path d="M640 168L438 720"/>
    <path d="M640 168L338 720"/>
    <path d="M640 168L238 720"/>
    <path d="M640 168L740 720"/>
    <path d="M640 168L840 720"/>
    <path d="M640 168L940 720"/>
    <path d="M640 168L1040 720"/>
    <path d="M570 234H710"/>
    <path d="M500 306H780"/>
    <path d="M430 392H850"/>
    <path d="M340 496H940"/>
    <path d="M250 612H1030"/>
  </g>

  <g>
    <rect x="566" y="422" width="148" height="20" rx="10" fill="#1c0f4b" opacity="0.7"/>
    <circle cx="640" cy="360" r="26" fill="#161d4d"/>
    <path d="M614 360a26 26 0 0 1 52 0" fill="#7b1fa2"/>
    <rect x="602" y="390" width="76" height="92" fill="#29b8ea"/>
    <rect x="586" y="402" width="20" height="76" fill="#29b8ea"/>
    <rect x="674" y="402" width="20" height="76" fill="#29b8ea"/>
    <rect x="590" y="474" width="16" height="54" fill="#2c57b8"/>
    <rect x="674" y="474" width="16" height="54" fill="#2c57b8"/>
    <rect x="580" y="472" width="14" height="14" rx="4" fill="#8ef5ff"/>
    <rect x="686" y="472" width="14" height="14" rx="4" fill="#ff93ff"/>
    <rect x="594" y="526" width="16" height="28" fill="#39f5ff"/>
    <rect x="668" y="526" width="16" height="28" fill="#39f5ff"/>
  </g>

  <g>
    <rect x="566" y="166" width="34" height="34" fill="#d91f00"/>
    <rect x="612" y="158" width="30" height="42" fill="#ffb300"/>
    <rect x="654" y="160" width="34" height="40" fill="#d91f00"/>
  </g>

  <text x="120" y="610" fill="#edf5ff" font-family="Arial, sans-serif" font-size="92" font-weight="700">NEON RUNNER 3D</text>
</svg>
