<svg width="640" height="360" viewBox="0 0 640 360" fill="none" xmlns="http://www.w3.org/2000/svg">
  <rect width="640" height="360" rx="32" fill="#1C1917"/>
  <rect x="24" y="24" width="592" height="312" rx="26" fill="url(#bg)"/>
  <rect x="76" y="92" width="488" height="154" rx="18" fill="#FDE68A"/>
  <rect x="96" y="112" width="448" height="114" rx="12" fill="#92400E"/>
  <rect x="122" y="138" width="92" height="16" rx="8" fill="#F8FAFC"/>
  <rect x="236" y="138" width="92" height="16" rx="8" fill="#F8FAFC"/>
  <rect x="350" y="138" width="92" height="16" rx="8" fill="#F8FAFC"/>
  <rect x="464" y="138" width="54" height="16" rx="8" fill="#F8FAFC"/>
  <rect x="138" y="198" width="78" height="14" rx="7" fill="#0F172A"/>
  <rect x="252" y="198" width="78" height="14" rx="7" fill="#0F172A"/>
  <rect x="366" y="198" width="78" height="14" rx="7" fill="#0F172A"/>
  <circle cx="510" cy="92" r="42" fill="#DC2626"/>
  <circle cx="510" cy="92" r="12" fill="#F8FAFC"/>
  <path d="M510 104L510 154" stroke="#F8FAFC" stroke-width="10" stroke-linecap="round"/>
  <path d="M510 132L470 172" stroke="#F8FAFC" stroke-width="10" stroke-linecap="round"/>
  <path d="M510 132L550 172" stroke="#F8FAFC" stroke-width="10" stroke-linecap="round"/>
  <text x="44" y="308" fill="#FEF3C7" font-family="Verdana, Arial, sans-serif" font-size="30" font-weight="700">LAST ROW TROUBLE</text>
  <defs>
    <linearGradient id="bg" x1="64" y1="44" x2="584" y2="316" gradientUnits="userSpaceOnUse">
      <stop stop-color="#7C2D12"/>
      <stop offset="1" stop-color="#111827"/>
    </linearGradient>
  </defs>
</svg>
