<svg width="640" height="360" viewBox="0 0 640 360" fill="none" xmlns="http://www.w3.org/2000/svg">
  <rect width="640" height="360" rx="32" fill="#0F172A"/>
  <rect x="28" y="28" width="584" height="304" rx="24" fill="url(#bg)"/>
  <circle cx="498" cy="112" r="62" fill="#F97316" opacity="0.18"/>
  <circle cx="525" cy="103" r="24" fill="#FDBA74"/>
  <rect x="104" y="78" width="176" height="110" rx="16" fill="#E2E8F0"/>
  <rect x="118" y="92" width="148" height="82" rx="10" fill="#1E293B"/>
  <rect x="86" y="194" width="214" height="18" rx="9" fill="#94A3B8"/>
  <rect x="320" y="102" width="152" height="116" rx="28" fill="#0B1220" stroke="#38BDF8" stroke-width="8"/>
  <circle cx="372" cy="144" r="14" fill="#38BDF8"/>
  <circle cx="420" cy="144" r="14" fill="#38BDF8"/>
  <rect x="362" y="178" width="68" height="12" rx="6" fill="#F97316"/>
  <path d="M338 232L314 284" stroke="#38BDF8" stroke-width="10" stroke-linecap="round"/>
  <path d="M456 232L480 284" stroke="#38BDF8" stroke-width="10" stroke-linecap="round"/>
  <path d="M344 246L300 214" stroke="#38BDF8" stroke-width="10" stroke-linecap="round"/>
  <path d="M450 246L494 214" stroke="#38BDF8" stroke-width="10" stroke-linecap="round"/>
  <text x="44" y="306" fill="#F8FAFC" font-family="Verdana, Arial, sans-serif" font-size="38" font-weight="700">CLICKER</text>
  <defs>
    <linearGradient id="bg" x1="84" y1="44" x2="560" y2="316" gradientUnits="userSpaceOnUse">
      <stop stop-color="#111827"/>
      <stop offset="1" stop-color="#1D4ED8"/>
    </linearGradient>
  </defs>
</svg>
