<svg width="640" height="360" viewBox="0 0 640 360" fill="none" xmlns="http://www.w3.org/2000/svg">
  <rect width="640" height="360" rx="32" fill="#D7EAF3"/>
  <rect x="14" y="14" width="612" height="332" rx="26" fill="#C8E2EE"/>

  <polygon points="0,250 640,218 640,360 0,360" fill="#EABF82"/>
  <polygon points="0,272 640,240 640,360 0,360" fill="#D9A663"/>
  <g opacity="0.26" stroke="#F7D9A5" stroke-width="4">
    <line x1="48" y1="255" x2="112" y2="360"/>
    <line x1="128" y1="250" x2="188" y2="360"/>
    <line x1="208" y1="246" x2="264" y2="360"/>
    <line x1="288" y1="242" x2="340" y2="360"/>
    <line x1="368" y1="238" x2="416" y2="360"/>
    <line x1="448" y1="234" x2="492" y2="360"/>
    <line x1="528" y1="230" x2="568" y2="360"/>
  </g>

  <g>
    <rect x="26" y="60" width="74" height="108" rx="7" fill="#8E5B33"/>
    <rect x="32" y="66" width="62" height="96" rx="4" fill="#C7ECF7"/>
    <line x1="63" y1="66" x2="63" y2="162" stroke="#8E5B33" stroke-width="4"/>
    <line x1="32" y1="114" x2="94" y2="114" stroke="#8E5B33" stroke-width="4"/>
    <rect x="102" y="72" width="16" height="90" rx="4" fill="#B97542"/>
    <polygon points="118,72 138,56 138,148 118,162" fill="#965A2F"/>
    <line x1="123" y1="91" x2="136" y2="82" stroke="#D7B28E" stroke-width="2"/>
    <line x1="123" y1="116" x2="136" y2="107" stroke="#D7B28E" stroke-width="2"/>
  </g>

  <g>
    <rect x="219" y="38" width="188" height="92" rx="6" fill="#7A4E2B"/>
    <rect x="228" y="46" width="170" height="76" rx="3" fill="#24553A"/>
    <path d="M255 84C281 71 300 72 329 85C349 92 367 92 386 84" stroke="#CDEBD4" stroke-width="4" stroke-linecap="round"/>
    <rect x="236" y="126" width="154" height="10" rx="5" fill="#B17D48"/>
  </g>

  <g>
    <circle cx="164" cy="54" r="22" fill="#F7FAFC"/>
    <circle cx="164" cy="54" r="19" stroke="#C05621" stroke-width="4"/>
    <line x1="164" y1="54" x2="164" y2="42" stroke="#C05621" stroke-width="3" stroke-linecap="round"/>
    <line x1="164" y1="54" x2="175" y2="60" stroke="#C05621" stroke-width="3" stroke-linecap="round"/>
  </g>

  <g transform="translate(492 96)">
    <circle cx="0" cy="0" r="17" fill="#F4C9A5"/>
    <path d="M-17 -2C-16 -22 -4 -31 8 -29C18 -28 24 -18 20 -2C13 -11 5 -14 -1 -14C-7 -14 -12 -10 -17 -2Z" fill="#8D3F2E"/>
    <path d="M-12 19L0 7L13 19V58H-12V19Z" fill="#B53B39"/>
    <path d="M-12 58L-20 84H-8L0 61L8 84H21L13 58H-12Z" fill="#26354B"/>
    <path d="M-11 28L-24 42" stroke="#F4C9A5" stroke-width="5" stroke-linecap="round"/>
    <path d="M12 28L26 38" stroke="#F4C9A5" stroke-width="5" stroke-linecap="round"/>
    <path d="M-3 8L-8 16" stroke="#8D3F2E" stroke-width="3" stroke-linecap="round"/>
    <path d="M4 8L9 16" stroke="#8D3F2E" stroke-width="3" stroke-linecap="round"/>
  </g>

  <g transform="translate(0 6)">
    <g transform="translate(112 150)">
      <ellipse cx="0" cy="50" rx="44" ry="10" fill="#B98555" opacity="0.38"/>
      <rect x="-30" y="8" width="60" height="38" rx="6" fill="#B9723A"/>
      <rect x="-26" y="12" width="52" height="30" rx="4" fill="#D79251"/>
      <rect x="-36" y="52" width="12" height="30" rx="4" fill="#8F5A33"/>
      <rect x="24" y="52" width="12" height="30" rx="4" fill="#8F5A33"/>
      <rect x="-22" y="54" width="44" height="8" rx="4" fill="#6E8FB1"/>
      <rect x="-18" y="44" width="36" height="18" rx="4" fill="#7FA4CA"/>
      <circle cx="0" cy="26" r="15" fill="#E8B790"/>
      <path d="M-16 24C-11 7 8 3 18 16C20 20 20 26 18 31C11 24 1 22 -8 24C-12 25 -14 26 -16 24Z" fill="#8F3B2A"/>
      <rect x="-10" y="38" width="20" height="20" rx="8" fill="#E85D5D"/>
    </g>

    <g transform="translate(216 138)">
      <ellipse cx="0" cy="58" rx="47" ry="10" fill="#B98555" opacity="0.38"/>
      <rect x="-32" y="12" width="64" height="40" rx="6" fill="#B9723A"/>
      <rect x="-28" y="16" width="56" height="32" rx="4" fill="#D79251"/>
      <rect x="-38" y="58" width="12" height="34" rx="4" fill="#8F5A33"/>
      <rect x="26" y="58" width="12" height="34" rx="4" fill="#8F5A33"/>
      <rect x="-20" y="62" width="40" height="8" rx="4" fill="#7F97B7"/>
      <rect x="-16" y="50" width="32" height="20" rx="4" fill="#95B4D3"/>
      <circle cx="0" cy="30" r="16" fill="#E8B790"/>
      <path d="M-17 29C-14 10 9 6 20 20C22 23 22 29 20 35C9 27 0 27 -8 30C-12 31 -15 31 -17 29Z" fill="#C86422"/>
      <rect x="-11" y="42" width="22" height="20" rx="8" fill="#EF8C3C"/>
    </g>

    <g transform="translate(326 154)">
      <ellipse cx="0" cy="55" rx="45" ry="10" fill="#B98555" opacity="0.38"/>
      <rect x="-30" y="10" width="60" height="39" rx="6" fill="#B9723A"/>
      <rect x="-26" y="14" width="52" height="31" rx="4" fill="#D79251"/>
      <rect x="-35" y="57" width="11" height="31" rx="4" fill="#8F5A33"/>
      <rect x="24" y="57" width="11" height="31" rx="4" fill="#8F5A33"/>
      <rect x="-21" y="60" width="42" height="8" rx="4" fill="#728FAE"/>
      <rect x="-17" y="48" width="34" height="20" rx="4" fill="#89A9CC"/>
      <circle cx="0" cy="29" r="15" fill="#E8B790"/>
      <path d="M-15 27C-13 12 7 6 17 17C20 21 20 28 18 34C8 28 0 28 -9 29C-12 30 -14 30 -15 27Z" fill="#2C2B3C"/>
      <rect x="-10" y="41" width="20" height="20" rx="8" fill="#F0C14B"/>
    </g>

    <g transform="translate(432 142)">
      <ellipse cx="0" cy="58" rx="47" ry="10" fill="#B98555" opacity="0.38"/>
      <rect x="-32" y="12" width="64" height="40" rx="6" fill="#B9723A"/>
      <rect x="-28" y="16" width="56" height="32" rx="4" fill="#D79251"/>
      <rect x="-38" y="58" width="12" height="34" rx="4" fill="#8F5A33"/>
      <rect x="26" y="58" width="12" height="34" rx="4" fill="#8F5A33"/>
      <rect x="-22" y="62" width="44" height="8" rx="4" fill="#6C89A8"/>
      <rect x="-18" y="50" width="36" height="20" rx="4" fill="#87A8C8"/>
      <circle cx="0" cy="30" r="16" fill="#E8B790"/>
      <path d="M-17 27C-14 10 10 8 20 21C23 25 23 31 20 36C8 29 0 28 -9 30C-13 31 -15 31 -17 27Z" fill="#D88B27"/>
      <rect x="-11" y="42" width="22" height="20" rx="8" fill="#65B87A"/>
    </g>

    <g transform="translate(170 215)">
      <ellipse cx="0" cy="54" rx="52" ry="12" fill="#A96B40" opacity="0.42"/>
      <rect x="-36" y="8" width="72" height="44" rx="7" fill="#A96131"/>
      <rect x="-31" y="13" width="62" height="34" rx="5" fill="#D38A49"/>
      <rect x="-42" y="58" width="12" height="38" rx="4" fill="#7E4F2B"/>
      <rect x="30" y="58" width="12" height="38" rx="4" fill="#7E4F2B"/>
      <rect x="-24" y="61" width="48" height="8" rx="4" fill="#6487AF"/>
      <rect x="-20" y="49" width="40" height="20" rx="4" fill="#80A6CE"/>
      <circle cx="0" cy="30" r="18" fill="#E8B790"/>
      <path d="M-20 28C-18 9 7 3 21 16C25 20 25 29 22 37C11 28 -1 27 -11 29C-15 30 -18 30 -20 28Z" fill="#7B4324"/>
      <rect x="-13" y="44" width="26" height="22" rx="9" fill="#C94848"/>
    </g>

    <g transform="translate(316 204)">
      <ellipse cx="0" cy="58" rx="54" ry="12" fill="#A96B40" opacity="0.42"/>
      <rect x="-38" y="8" width="76" height="46" rx="7" fill="#A96131"/>
      <rect x="-33" y="13" width="66" height="36" rx="5" fill="#D38A49"/>
      <rect x="-44" y="60" width="12" height="40" rx="4" fill="#7E4F2B"/>
      <rect x="32" y="60" width="12" height="40" rx="4" fill="#7E4F2B"/>
      <rect x="-26" y="63" width="52" height="8" rx="4" fill="#6C86A5"/>
      <rect x="-21" y="51" width="42" height="20" rx="4" fill="#86A5C7"/>
      <circle cx="0" cy="32" r="18" fill="#E8B790"/>
      <path d="M-20 31C-18 12 10 7 23 21C26 25 26 33 22 39C10 31 1 30 -10 31C-15 32 -18 32 -20 31Z" fill="#2A2A30"/>
      <rect x="-13" y="47" width="26" height="22" rx="9" fill="#F0A52D"/>
    </g>

    <g transform="translate(472 222)">
      <ellipse cx="0" cy="60" rx="56" ry="12" fill="#A96B40" opacity="0.42"/>
      <rect x="-40" y="8" width="80" height="48" rx="7" fill="#A96131"/>
      <rect x="-35" y="13" width="70" height="38" rx="5" fill="#D38A49"/>
      <rect x="-46" y="62" width="12" height="42" rx="4" fill="#7E4F2B"/>
      <rect x="34" y="62" width="12" height="42" rx="4" fill="#7E4F2B"/>
      <rect x="-28" y="65" width="56" height="8" rx="4" fill="#7391B3"/>
      <rect x="-23" y="53" width="46" height="20" rx="4" fill="#92B5D8"/>
      <circle cx="0" cy="34" r="19" fill="#E8B790"/>
      <path d="M-22 33C-20 14 7 7 24 18C29 22 29 31 24 40C11 31 1 31 -11 34C-16 35 -20 35 -22 33Z" fill="#F1D14B"/>
      <rect x="-14" y="49" width="28" height="22" rx="9" fill="#59A7E8"/>
    </g>
  </g>

  <g>
    <rect x="160" y="292" width="320" height="44" rx="22" fill="#17324A" opacity="0.94"/>
    <text x="320" y="320" text-anchor="middle" fill="#F8FAFC" font-family="Verdana, Arial, sans-serif" font-size="28" font-weight="700" letter-spacing="1.4">LAST ROW TROUBLE</text>
  </g>
</svg>
