<svg xmlns="http://www.w3.org/2000/svg" viewBox="0 0 1024 1536" role="img" aria-labelledby="title desc">
  <title id="title">Professor enfadat amb un paper a la ma</title>
  <desc id="desc">Il·lustracio vertical d'un professor davant la classe, amb vestit fosc, corbata vermella i un paper arrugat al davant.</desc>
  <defs>
    <linearGradient id="wall" x1="0%" y1="0%" x2="100%" y2="100%">
      <stop offset="0%" stop-color="#f9f7f2"/>
      <stop offset="100%" stop-color="#e8e0d8"/>
    </linearGradient>
    <linearGradient id="chalk" x1="0%" y1="0%" x2="100%" y2="100%">
      <stop offset="0%" stop-color="#83b5aa"/>
      <stop offset="100%" stop-color="#517b78"/>
    </linearGradient>
    <linearGradient id="window" x1="0%" y1="0%" x2="0%" y2="100%">
      <stop offset="0%" stop-color="#eef6ff"/>
      <stop offset="100%" stop-color="#cee7ff"/>
    </linearGradient>
    <linearGradient id="suit" x1="0%" y1="0%" x2="0%" y2="100%">
      <stop offset="0%" stop-color="#464851"/>
      <stop offset="100%" stop-color="#2e3139"/>
    </linearGradient>
    <linearGradient id="tie" x1="0%" y1="0%" x2="0%" y2="100%">
      <stop offset="0%" stop-color="#b44b59"/>
      <stop offset="100%" stop-color="#7d2230"/>
    </linearGradient>
    <linearGradient id="skin" x1="0%" y1="0%" x2="0%" y2="100%">
      <stop offset="0%" stop-color="#f2c9a2"/>
      <stop offset="100%" stop-color="#c9895f"/>
    </linearGradient>
    <linearGradient id="hair" x1="0%" y1="0%" x2="0%" y2="100%">
      <stop offset="0%" stop-color="#4b382f"/>
      <stop offset="100%" stop-color="#1d1312"/>
    </linearGradient>
    <filter id="shadow" x="-20%" y="-20%" width="140%" height="140%">
      <feDropShadow dx="0" dy="18" stdDeviation="18" flood-color="#000" flood-opacity="0.25"/>
    </filter>
    <filter id="soft" x="-20%" y="-20%" width="140%" height="140%">
      <feGaussianBlur stdDeviation="6"/>
    </filter>
  </defs>

  <rect width="1024" height="1536" fill="url(#wall)"/>

  <rect x="0" y="0" width="1024" height="120" fill="#f4f0ea"/>
  <path d="M0 120h1024" stroke="#ded6cb" stroke-width="4"/>

  <g opacity="0.95">
    <rect x="48" y="152" width="196" height="436" rx="12" fill="#faf8f5" stroke="#c9d2db" stroke-width="10"/>
    <rect x="84" y="186" width="124" height="364" fill="url(#window)"/>
    <path d="M146 186v364" stroke="#c9d2db" stroke-width="10"/>
    <path d="M84 280h124" stroke="#c9d2db" stroke-width="10"/>
    <ellipse cx="146" cy="450" rx="55" ry="86" fill="#d4e8c5" opacity="0.55"/>
    <ellipse cx="172" cy="392" rx="44" ry="70" fill="#ecf5de" opacity="0.65"/>
  </g>

  <g opacity="0.95">
    <rect x="616" y="208" width="330" height="438" rx="10" fill="url(#chalk)" stroke="#d6b28a" stroke-width="12"/>
    <path d="M690 300c64-20 126-26 183-18" stroke="#d5efe7" stroke-width="7" stroke-linecap="round" opacity="0.5"/>
    <path d="M680 354c70 9 143 9 224 0" stroke="#d5efe7" stroke-width="7" stroke-linecap="round" opacity="0.42"/>
    <path d="M702 410c44-9 92-9 144 0" stroke="#d5efe7" stroke-width="7" stroke-linecap="round" opacity="0.42"/>
    <path d="M760 468c49-54 118-48 141 19-51 17-96 15-141-19z" fill="none" stroke="#d5efe7" stroke-width="7" opacity="0.4"/>
    <circle cx="813" cy="468" r="12" fill="none" stroke="#d5efe7" stroke-width="6" opacity="0.4"/>
    <rect x="846" y="620" width="56" height="12" rx="6" fill="#f4f4ef" opacity="0.8"/>
    <rect x="912" y="616" width="34" height="18" rx="4" fill="#d9c36a" opacity="0.95"/>
  </g>

  <g opacity="0.5">
    <path d="M42 1326h228" stroke="#c1b09b" stroke-width="16"/>
    <path d="M760 1316h206" stroke="#c1b09b" stroke-width="16"/>
  </g>

  <g opacity="0.92">
    <rect x="22" y="1180" width="220" height="26" rx="8" fill="#d6b78b"/>
    <rect x="58" y="1054" width="156" height="146" rx="10" fill="#ead3aa"/>
    <path d="M82 1200v114" stroke="#808489" stroke-width="12"/>
    <path d="M204 1200v114" stroke="#808489" stroke-width="12"/>
    <rect x="832" y="1208" width="164" height="24" rx="8" fill="#d6b78b"/>
    <rect x="844" y="1092" width="138" height="134" rx="10" fill="#edd7b2"/>
    <path d="M864 1230v110" stroke="#808489" stroke-width="12"/>
    <path d="M956 1230v110" stroke="#808489" stroke-width="12"/>
    <rect x="876" y="1114" width="82" height="76" rx="8" fill="#faf7f2"/>
    <path d="M892 1178l34-24 12 18" stroke="#8c6f45" stroke-width="4" stroke-linecap="round"/>
  </g>

  <g filter="url(#shadow)">
    <path d="M332 590c42-66 113-112 190-112 113 0 214 93 226 226l18 404H272l18-334c6-70 24-130 42-184z" fill="url(#suit)"/>
    <path d="M382 694c24-62 72-114 138-114 67 0 118 55 142 126l36 452H330l52-464z" fill="#f7f2ea"/>
    <path d="M434 698l90 0 48 374h-137l-1-374z" fill="url(#tie)"/>
    <path d="M430 698l-46 186 78 230-118 0-28-422z" fill="#373942"/>
    <path d="M614 698l56 184-90 232 144 0 12-400z" fill="#3b3e47"/>

    <path d="M404 1360c-6-110 10-182 32-246h116c22 63 33 138 28 246H404z" fill="#31333b"/>
    <path d="M486 1114h84v246h-84z" fill="#2b2d34"/>

    <path d="M468 466c13-84 136-103 180-47 24 30 24 71 4 118-16 39-41 73-82 88-32 11-78 7-108-27-20-22-19-79 6-132z" fill="url(#skin)"/>
    <path d="M416 424c48-58 119-89 194-79 53 7 104 35 130 86-38 2-58 18-64 54-18 0-36-6-54-18-12 24-32 47-67 60-32 12-74 13-120 4-22-31-27-67-19-107z" fill="url(#hair)"/>
    <path d="M384 450l50-54-8 58 65-74-2 71 68-93 2 84 62-74-4 76 68-58-10 74 74-42-26 80 52-18-34 56c-42 28-91 42-149 44-78 2-148-18-208-70z" fill="url(#hair)"/>
    <path d="M500 598c20 12 46 14 72 10" stroke="#8c583f" stroke-width="5" stroke-linecap="round" fill="none"/>

    <path d="M706 1088c16-52 62-104 104-120l48 336c-36 16-71 4-98-28-24-29-34-76-54-106z" fill="url(#suit)"/>
    <path d="M808 1008c24-12 44-12 66 0l20 260c-34 14-64 8-90-18l4-242z" fill="#f5efe7"/>
    <path d="M784 1206c6 18 2 32-12 44-14 10-34 10-49-2-13-10-18-32-8-48 12-18 34-26 69-18z" fill="url(#skin)"/>
    <path d="M796 1154l30 0 0 102-30 0z" fill="url(#skin)"/>

    <path d="M150 800c60-52 118-76 178-74 46 2 96 22 140 64-7 44-19 85-56 118-30 26-79 44-154 46-62 2-119-10-154-36-28-20-33-83-10-118 12-18 30-19 56 0z" fill="url(#skin)"/>
    <path d="M280 800c44 7 71 26 96 58-15 61-45 119-100 154-52 34-110 44-176 20l50-232c44-14 86-14 130 0z" fill="url(#skin)"/>
    <path d="M224 760c24-18 72-34 114-26l82 72-36 76-188-10-48-38c18-36 40-58 76-74z" fill="url(#suit)"/>

    <path d="M238 756c54 6 104 24 146 58l-6 56c-22 38-56 52-102 44-40-7-72-30-96-72 4-41 26-69 58-86z" fill="url(#skin)"/>
    <path d="M236 774c40 0 74 9 106 28l-2 42c-16 26-42 35-76 31-40-6-66-30-82-68 12-21 30-33 54-33z" fill="#f2c39d"/>

    <path d="M170 758c48-8 120 6 190 58-8 23-24 46-42 69-25-19-44-29-71-38-29-9-62-13-101-12-26 1-48-2-68-12 8-31 42-57 92-65z" fill="url(#suit)"/>

    <path d="M226 760c46 13 84 40 118 84-8 52-30 90-66 116-30 22-68 32-114 31-42 0-76-10-103-29 6-37 28-66 66-90-20-13-32-30-38-52 19-32 63-54 137-60z" fill="url(#skin)"/>

    <g transform="translate(250 828)">
      <path d="M0 0c28-30 79-43 128-34 30 5 55 17 74 37-17 22-26 48-26 74-16 14-41 24-74 30-36 6-70 5-102-4-40-11-66-32-78-61 10-18 36-33 78-42z" fill="#f0c39a"/>
      <path d="M54 18c18 2 33 10 42 23 0 13-8 22-22 28-14 7-30 7-46 1-16-6-23-17-22-31 8-14 24-22 48-21z" fill="#f7d4b0"/>
    </g>

    <g transform="translate(310 862)">
      <path d="M0 0c34-31 98-40 150-24 49 16 78 54 74 100-22 17-46 29-76 35-54 10-102 2-144-24-34-22-52-48-54-78 8-4 25-7 50-9z" fill="#ffffff"/>
      <path d="M36 16c18-10 34-7 48 7-5 19-21 32-38 38-18-7-26-23-10-45z" fill="#e7e7e7"/>
      <path d="M96 8c17-7 32-3 45 12-6 18-20 28-37 32-16-6-22-20-8-44z" fill="#f2f2f2"/>
      <path d="M58 58c14-11 30-10 50 4-2 20-13 34-30 42-18-8-28-23-20-46z" fill="#ededed"/>
      <path d="M112 60c14-10 31-8 48 8-4 19-16 32-36 36-18-8-26-22-12-44z" fill="#f7f7f7"/>
      <path d="M18 58c16-7 32-4 44 12-5 17-18 27-34 31-15-8-20-22-10-43z" fill="#f5f5f5"/>
    </g>
  </g>

  <rect width="1024" height="1536" fill="#000" opacity="0.06"/>
  <ellipse cx="512" cy="1450" rx="420" ry="56" fill="#000" opacity="0.12" filter="url(#soft)"/>
</svg>
